<svg width="24" height="24" viewBox="0 0 24 24" fill="none" xmlns="http://www.w3.org/2000/svg">
<g id="Simple icons">
<path id="Vector" fill-rule="evenodd" clip-rule="evenodd" d="M3 11.9996C3 7.04998 7.05026 3 12 3C16.9497 3 21 7.0491 21 11.9996C21 16.95 16.9497 21 12 21C7.05026 21 3 16.95 3 11.9996ZM4.50058 11.9996C4.50058 16.1257 7.87537 19.5009 12 19.5009C16.1246 19.5009 19.5003 16.1257 19.5003 12.0004C19.5003 7.87433 16.1246 4.49905 12 4.49905C7.87537 4.49905 4.50058 7.87345 4.50058 11.9996Z" fill="black"/>
<path id="Line 2 (Stroke)" fill-rule="evenodd" clip-rule="evenodd" d="M11 9V7H13V9H11Z" fill="black"/>
<path id="Line 3 (Stroke)" fill-rule="evenodd" clip-rule="evenodd" d="M11 17V10H13V17H11Z" fill="black"/>
</g>
</svg>
