<svg width="24" height="24" viewBox="0 0 24 24" fill="none" xmlns="http://www.w3.org/2000/svg">
<g id="Simple icons">
<path id="Vector" d="M5 7.5H6.55556H19" stroke="#A5A8B0" stroke-width="1.5" stroke-linecap="round" stroke-linejoin="round"/>
<path id="Vector_2" d="M18 7.5V18.4C18 18.8243 17.8194 19.2313 17.4979 19.5314C17.1764 19.8314 16.7404 20 16.2857 20H7.71429C7.25963 20 6.82359 19.8314 6.5021 19.5314C6.18061 19.2313 6 18.8243 6 18.4V7.5M8.57143 7.5V5.6C8.57143 5.17565 8.75204 4.76869 9.07353 4.46863C9.39502 4.16857 9.83106 4 10.2857 4H13.7143C14.1689 4 14.605 4.16857 14.9265 4.46863C15.248 4.76869 15.4286 5.17565 15.4286 5.6V7.5" stroke="#A5A8B0" stroke-width="1.5" stroke-linecap="round" stroke-linejoin="round"/>
</g>
</svg>
