<svg width="24" height="24" viewBox="0 0 24 24" fill="none" xmlns="http://www.w3.org/2000/svg">
<g id="Simple icons">
<path id="Vector" d="M12 21C16.9706 21 21 16.9706 21 12C21 7.02944 16.9706 3 12 3C7.02944 3 3 7.02944 3 12C3 16.9706 7.02944 21 12 21Z" stroke="black" stroke-width="1.5" stroke-linecap="round" stroke-linejoin="round"/>
<path id="Vector_2" d="M9 9.33681C9.24196 8.55767 9.71954 7.90067 10.3482 7.48218C10.9768 7.06369 11.7158 6.91072 12.4345 7.05035C13.1531 7.18998 13.805 7.61321 14.2745 8.24508C14.7441 8.87694 15.0011 9.67667 15 10.5026C15 12.8342 11.9125 14 11.9125 14" stroke="black" stroke-width="1.5" stroke-linecap="round" stroke-linejoin="round"/>
<path id="Vector_3" d="M12 17H12.01" stroke="black" stroke-width="2" stroke-linecap="round" stroke-linejoin="round"/>
</g>
</svg>
