<svg width="72" height="72" viewBox="0 0 72 72" fill="none" xmlns="http://www.w3.org/2000/svg">
<g id="interest">
<path id="Vector" fill-rule="evenodd" clip-rule="evenodd" d="M42.4283 59.1448C44.6233 59.1448 46.7968 58.7125 48.8247 57.8725C50.8526 57.0325 52.6952 55.8013 54.2472 54.2492C55.7993 52.6972 57.0305 50.8546 57.8705 48.8267C58.7105 46.7988 59.1428 44.6253 59.1428 42.4303C59.1428 40.2353 58.7105 38.0618 57.8705 36.0339C57.0305 34.006 55.7993 32.1634 54.2472 30.6114C52.6952 29.0593 50.8526 27.8281 48.8247 26.9881C46.7968 26.1481 44.6233 25.7158 42.4283 25.7158C37.9954 25.7158 33.744 27.4768 30.6094 30.6114C27.4748 33.7459 25.7138 37.9973 25.7138 42.4303C25.7138 46.8633 27.4748 51.1147 30.6094 54.2492C33.744 57.3838 37.9954 59.1448 42.4283 59.1448ZM42.4283 64.2868C45.2987 64.2868 48.1411 63.7214 50.793 62.623C53.4449 61.5245 55.8546 59.9144 57.8843 57.8847C59.914 55.855 61.524 53.4454 62.6225 50.7935C63.7209 48.1416 64.2863 45.2992 64.2863 42.4288C64.2863 39.5584 63.7209 36.716 62.6225 34.0641C61.524 31.4122 59.914 29.0026 57.8843 26.9729C55.8546 24.9432 53.4449 23.3331 50.793 22.2346C48.1411 21.1362 45.2987 20.5708 42.4283 20.5708C36.6312 20.5708 31.0715 22.8737 26.9724 26.9729C22.8732 31.072 20.5703 36.6317 20.5703 42.4288C20.5703 48.2259 22.8732 53.7856 26.9724 57.8847C31.0715 61.9839 36.6312 64.2868 42.4283 64.2868Z" fill="black"/>
<path id="Vector_2" fill-rule="evenodd" clip-rule="evenodd" d="M43.6792 20.6038C42.3355 18.4924 40.5348 16.7097 38.41 15.3873C36.2852 14.065 33.8905 13.2367 31.4027 12.9636C28.915 12.6905 26.3977 12.9797 24.0366 13.8097C21.6755 14.6396 19.531 15.9893 17.7613 17.759C15.9917 19.5286 14.642 21.6732 13.812 24.0342C12.982 26.3953 12.6929 28.9126 12.966 31.4004C13.239 33.8881 14.0673 36.2828 15.3897 38.4076C16.7121 40.5324 18.4948 42.3331 20.6062 43.6768C20.7322 45.9088 21.1942 48.0508 21.9412 50.0548C18.5115 48.7754 15.4581 46.6552 13.061 43.8887C10.664 41.1222 9.0001 37.798 8.22208 34.2211C7.44406 30.6442 7.5768 26.9292 8.60813 23.4169C9.63945 19.9047 11.5363 16.7077 14.1247 14.1193C16.7131 11.531 19.9101 9.63408 23.4223 8.60276C26.9346 7.57143 30.6496 7.43869 34.2264 8.21671C37.8033 8.99473 41.1275 10.6586 43.8941 13.0556C46.6606 15.4527 48.7808 18.5061 50.0602 21.9358C48.0121 21.1739 45.861 20.7249 43.6792 20.6038Z" fill="black"/>
</g>
</svg>
