<svg width="24" height="24" viewBox="0 0 24 24" fill="none" xmlns="http://www.w3.org/2000/svg">
<g id="Simple icons">
<path id="Vector" d="M19.1973 4L17.5918 5.57687M17.5918 5.57687L20 7.94217L17.1904 10.7017L14.7822 8.33639M17.5918 5.57687L14.7822 8.33639M11.483 11.5768C11.8975 11.9785 12.227 12.4568 12.4525 12.984C12.678 13.5113 12.7952 14.0772 12.7971 14.6491C12.7991 15.221 12.6858 15.7876 12.4639 16.3164C12.2419 16.8451 11.9157 17.3255 11.504 17.7299C11.0923 18.1343 10.6031 18.4547 10.0648 18.6727C9.52649 18.8907 8.94958 19.0019 8.36731 19C7.78503 18.9981 7.20889 18.883 6.67206 18.6615C6.13523 18.44 5.64832 18.1164 5.23935 17.7093C4.43512 16.8914 3.99011 15.7961 4.00017 14.6591C4.01023 13.5221 4.47455 12.4345 5.29313 11.6305C6.11171 10.8265 7.21906 10.3704 8.37667 10.3605C9.53427 10.3506 10.6495 10.7877 11.4822 11.5776L11.483 11.5768ZM11.483 11.5768L14.7822 8.33639" stroke="black" stroke-width="1.5" stroke-linecap="round" stroke-linejoin="round"/>
</g>
</svg>
