<svg width="25" height="16" viewBox="0 0 25 16" fill="none" xmlns="http://www.w3.org/2000/svg">
<g id="master">
<path id="Vector" d="M15.1923 2.76917L8.84985 2.76917L8.84985 13.1282L15.1923 13.1282L15.1923 2.76917Z" fill="#FF5F00"/>
<path id="Vector_2" d="M9.50338 7.95004C9.50259 6.95256 9.72871 5.96796 10.1646 5.07078C10.6005 4.17359 11.2348 3.38731 12.0195 2.77145C11.0476 2.00769 9.88054 1.53276 8.65155 1.40092C7.42257 1.26909 6.18129 1.48568 5.06957 2.02593C3.95786 2.56619 3.02057 3.40832 2.36482 4.45607C1.70907 5.50382 1.36133 6.71492 1.36133 7.95095C1.36133 9.18699 1.70907 10.3981 2.36482 11.4458C3.02057 12.4936 3.95786 13.3357 5.06957 13.876C6.18129 14.4162 7.42257 14.6328 8.65155 14.501C9.88054 14.3691 11.0476 13.8942 12.0195 13.1305C11.2346 12.5144 10.6001 11.7278 10.1642 10.8303C9.7283 9.93278 9.50231 8.94783 9.50338 7.95004Z" fill="#EB001B"/>
<path id="Vector_3" d="M22.0487 12.032V11.82H22.1401V11.7761H21.9226V11.82H22.0085V12.032H22.0487ZM22.471 12.032V11.7761H22.4052L22.3284 11.9589L22.2516 11.7761H22.1858V12.032H22.2334V11.8383L22.3047 12.0046H22.354L22.4253 11.8383V12.032H22.471Z" fill="#F79E1B"/>
<path id="Vector_4" d="M22.6786 7.94988C22.6786 9.18601 22.3308 10.3972 21.6749 11.445C21.0191 12.4928 20.0816 13.3349 18.9698 13.875C17.8579 14.4152 16.6165 14.6317 15.3875 14.4997C14.1584 14.3676 12.9913 13.8925 12.0195 13.1285C12.8039 12.5121 13.438 11.7256 13.874 10.8283C14.31 9.93109 14.5366 8.94654 14.5366 7.94897C14.5366 6.95139 14.31 5.96684 13.874 5.0696C13.438 4.17237 12.8039 3.38587 12.0195 2.76946C12.9913 2.00547 14.1584 1.5303 15.3875 1.39828C16.6165 1.26626 17.8579 1.48271 18.9698 2.02289C20.0816 2.56306 21.0191 3.40518 21.6749 4.45296C22.3308 5.50075 22.6786 6.71192 22.6786 7.94805V7.94988Z" fill="#F79E1B"/>
</g>
</svg>
