<svg width="28" height="9" viewBox="0 0 28 9" fill="none" xmlns="http://www.w3.org/2000/svg">
<g id="visa">
<path id="checkout_visa" d="M10.5746 0.15393L6.93595 8.81501L4.56141 8.81501L2.75061 1.91348C2.64811 1.4864 2.54561 1.33266 2.22104 1.14474C1.67438 0.854334 0.786063 0.581005 0.000244141 0.410175L0.0514932 0.15393L3.87809 0.15393C4.3735 0.15393 4.80057 0.478507 4.92015 1.04225L5.8768 6.04757L8.21717 0.15393L10.5746 0.15393ZM19.902 5.99632C19.919 3.7072 16.7416 3.57053 16.7587 2.56263C16.7587 2.25514 17.0662 1.91348 17.7153 1.84515C18.0399 1.81098 18.9282 1.77682 19.9361 2.23806L20.329 0.376009C19.7824 0.188096 19.082 0.000183105 18.2278 0.000183105C16.007 0.000183105 14.4354 1.17891 14.4183 2.87013C14.4012 4.11719 15.5458 4.81759 16.3829 5.22758C17.2541 5.65466 17.5616 5.92799 17.5445 6.30381C17.5445 6.88464 16.8441 7.14088 16.1949 7.15796C15.0675 7.17505 14.4012 6.85047 13.8887 6.61131L13.4787 8.50752C14.0083 8.74668 14.982 8.95168 15.9899 8.96876C18.3474 8.95168 19.902 7.79003 19.902 5.99632ZM25.7956 8.81501L27.8797 8.81501L26.0518 0.15393L24.1385 0.15393C23.7115 0.15393 23.3356 0.410175 23.1819 0.786002L19.7995 8.81501H22.1569L22.6181 7.51671L25.5052 7.51671L25.7956 8.81501ZM23.2673 5.75716L24.446 2.51139L25.1294 5.75716L23.2673 5.75716ZM13.8033 0.15393L11.9413 8.81501H9.68631L11.5484 0.15393L13.8033 0.15393Z" fill="#1A1F71"/>
</g>
</svg>
