<svg width="113" height="43" viewBox="0 0 113 43" fill="none" xmlns="http://www.w3.org/2000/svg">
<g id="walt">
<path d="M8.95668 42L0.171875 10.909H7.64098L13.1062 32.7698H13.3896L18.9762 10.909H26.3643L31.951 32.6484H32.2546L37.6388 10.909H45.1282L36.3231 42H28.6921L22.8626 20.9893H22.4375L16.608 42H8.95668Z" fill="black"/>
<path d="M57.691 42.6274C55.7208 42.6274 53.9463 42.2766 52.3674 41.5749C50.8021 40.8597 49.5606 39.8071 48.643 38.4172C47.7389 37.0273 47.2868 35.3135 47.2868 33.2759C47.2868 31.5216 47.6107 30.071 48.2584 28.924C48.9062 27.7769 49.79 26.8593 50.9101 26.1711C52.0301 25.4829 53.2918 24.9634 54.6952 24.6125C56.1121 24.2482 57.5763 23.985 59.0876 23.8231C60.9094 23.6342 62.387 23.4655 63.5205 23.3171C64.654 23.1551 65.4772 22.9122 65.99 22.5884C66.5162 22.251 66.7794 21.7315 66.7794 21.0298V20.9083C66.7794 19.3835 66.3273 18.2027 65.4232 17.3661C64.5191 16.5294 63.2169 16.1111 61.5166 16.1111C59.7218 16.1111 58.2982 16.5024 57.2456 17.2851C56.2066 18.0678 55.5049 18.9921 55.1405 20.0582L48.2989 19.0866C48.8387 17.1974 49.7293 15.6186 50.9708 14.3501C52.2123 13.0681 53.7304 12.11 55.5251 11.4758C57.3199 10.8281 59.3035 10.5042 61.4761 10.5042C62.974 10.5042 64.4651 10.6796 65.9495 11.0305C67.4339 11.3813 68.79 11.9616 70.018 12.7713C71.246 13.5674 72.2311 14.6537 72.9733 16.0301C73.729 17.4066 74.1068 19.1271 74.1068 21.1917V42H67.0628V37.729H66.8199C66.3745 38.5926 65.7471 39.4023 64.9374 40.158C64.1412 40.9002 63.1359 41.5007 61.9214 41.9595C60.7204 42.4048 59.3103 42.6274 57.691 42.6274ZM59.5937 37.2432C61.0645 37.2432 62.3397 36.9531 63.4193 36.3728C64.4988 35.7791 65.3287 34.9964 65.909 34.0248C66.5027 33.0532 66.7996 31.9939 66.7996 30.8469V27.1832C66.5702 27.3721 66.1789 27.5475 65.6256 27.7095C65.0858 27.8714 64.4786 28.0131 63.8039 28.1345C63.1292 28.256 62.4612 28.364 61.8 28.4584C61.1388 28.5529 60.5652 28.6338 60.0794 28.7013C58.9864 28.8497 58.0081 29.0926 57.1444 29.43C56.2808 29.7674 55.5993 30.2397 55.1 30.8469C54.6008 31.4407 54.3511 32.2098 54.3511 33.1544C54.3511 34.5039 54.8437 35.5227 55.8287 36.2109C56.8138 36.8991 58.0688 37.2432 59.5937 37.2432Z" fill="black"/>
<path d="M88.8021 0.54541V42H81.4747V0.54541H88.8021Z" fill="black"/>
<path d="M111.862 10.909V16.5767H88.8021L92.5003 10.909H111.862ZM98.4016 0.54541H105.729V32.6484C105.729 33.6335 105.877 34.3892 106.174 34.9154C106.485 35.4282 106.89 35.7791 107.389 35.968C107.888 36.1569 108.441 36.2514 109.049 36.2514C109.507 36.2514 109.926 36.2176 110.304 36.1502C110.695 36.0827 110.992 36.022 111.194 35.968L112.429 41.6963C112.038 41.8313 111.478 41.9797 110.749 42.1416C110.034 42.3036 109.157 42.398 108.118 42.425C106.282 42.479 104.629 42.2024 103.158 41.5951C101.687 40.9744 100.52 40.0163 99.6566 38.7208C98.8065 37.4254 98.3881 35.8061 98.4016 33.8629V0.54541Z" fill="black"/>
</g>
</svg>
